# xmcd
#
# Track frame offsets:
#	150
#	14979
#	30681
#	43935
#	60074
#	75177
#	89168
#	103222
#	118424
#	128492
#	142847
#	159716
#
# Disc length: 2306 seconds
#
# Revision: 0
# Processed by: cddbd v1.4PL0 Copyright (c) Steve Scherf et al.
# Submitted via: EasyCDDAExtractor 4.6.9.1
#
DISCID=9f09000c
DTITLE=Tião Carreiro e Pardinho - Boi Soberano
DYEAR=1966
DGENRE=country
TTITLE0=Boi Soberano
TTITLE1=A Morte do Carreiro
TTITLE2=Violeiro Solteiro
TTITLE3=Preto Fugido
TTITLE4=Irmão do Ferreirinha
TTITLE5=Patriota
TTITLE6=Saudade de Araraquara
TTITLE7=Três Cuiabanas
TTITLE8=Sucuri
TTITLE9=Triste Desengano
TTITLE10=Teu Nome Tem Sete Letras
TTITLE11=Duas Cartas
EXTD=(c) 1966  (p) 2000 Warenr Music Brasil Ltda
EXTT0=
EXTT1=
EXTT2=
EXTT3=
EXTT4=
EXTT5=
EXTT6=
EXTT7=
EXTT8=
EXTT9=
EXTT10=
EXTT11=
PLAYORDER=
